<svg width="409" height="115" viewBox="0 0 409 115" fill="none" xmlns="http://www.w3.org/2000/svg">
<path d="M2.45386 59.299H44.9797C49.21 59.299 52.4794 58.1038 54.7869 55.7142C55.6047 54.8672 56.2717 53.8964 56.7991 52.8106H2.45386V59.299Z" fill="#F0EFE8"/>
<path d="M69.7861 53.8187C73.9069 57.4732 79.6476 59.299 87.0108 59.299H115.444V52.8106H68.752C69.0814 53.1598 69.4239 53.4973 69.7861 53.8187Z" fill="#F0EFE8"/>
<path d="M122.696 55.5081C125.058 57.7618 128.465 58.887 132.915 58.887H176.513V52.8106H120.667C121.202 53.825 121.875 54.7263 122.696 55.5081Z" fill="#F0EFE8"/>
<path d="M197.527 52.8106H185.577V58.887H197.527V52.8106Z" fill="#F0EFE8"/>
<path d="M236.509 52.8106H224.559V58.887H236.509V52.8106Z" fill="#F0EFE8"/>
<path d="M249.694 53.8187C253.815 57.4732 259.556 59.299 266.919 59.299H300.297V52.8106H248.66C248.99 53.1598 249.332 53.4973 249.694 53.8187Z" fill="#F0EFE8"/>
<path d="M323.456 52.8106H310.269V58.887H323.456V52.8106Z" fill="#C8F53B"/>
<path d="M345.047 52.8106H333.097V58.887H345.047V52.8106Z" fill="#C8F53B"/>
<path d="M353.155 52.8106C353.689 53.825 354.363 54.7263 355.184 55.5081C357.546 57.7618 360.952 58.887 365.403 58.887H409V52.8106H353.155Z" fill="#C8F53B"/>
<path d="M298.59 19.4326C296.036 17.1533 292.34 16.0124 287.505 16.0124H266.902C259.539 16.0124 253.798 17.8396 249.677 21.4927C248.917 22.1669 248.235 22.9075 247.616 23.701H245.744C243.062 27.193 241.719 31.8183 241.719 37.5805C241.719 44.1215 243.483 49.1929 246.993 52.8092H298.503V49.6956H265.124C259.245 49.6956 255.729 47.1408 254.575 42.0312H285.728C295.672 42.0312 300.645 37.7183 300.645 29.0921C300.645 27.2024 300.384 25.5126 299.874 24.0121H301.619C300.985 22.1992 299.977 20.6709 298.59 19.4326ZM287.747 31.5643C287.115 32.2236 286.25 32.5535 285.151 32.5535H254.658C255.976 27.7733 259.465 25.3833 265.124 25.3833H285.151C287.513 25.3833 288.695 26.5368 288.695 28.8447C288.695 29.9987 288.378 30.9054 287.747 31.5643Z" fill="#F0EFE8"/>
<path d="M345.059 0H332.944V9.31254H345.059V0Z" fill="#C8F53B"/>
<path d="M41.042 49.6956H0.658899V52.8092H54.9417C55.9449 50.8079 56.4538 48.4007 56.4538 45.5748C56.4538 41.3445 55.3129 38.1165 53.0337 35.8911C50.7531 33.6657 47.4707 32.5535 43.1848 32.5535H15.4935C14.4491 32.5535 13.5981 32.2236 12.9392 31.5643C12.2798 30.9049 11.9499 29.9983 11.9499 28.8447C11.9499 26.5368 13.1308 25.3833 15.4935 25.3833H52.4978V24.0121H54.2752V16.0124H16.6942C11.8588 16.0124 8.16441 17.1533 5.60916 19.4326C4.30259 20.5986 3.33758 22.0251 2.69978 23.701H0.877485C0.294889 25.2765 0 27.0718 0 29.0916C0 33.2681 1.26303 36.4679 3.79135 38.6928C6.31788 40.9181 10.0262 42.0308 14.9172 42.0308H41.0424C43.3504 42.0308 44.5039 43.2952 44.5039 45.8217C44.5039 48.4057 43.3499 49.6956 41.042 49.6956Z" fill="#F0EFE8"/>
<path d="M113.649 49.6956H85.2158C81.6434 49.6956 78.9109 48.7064 77.0159 46.7288C75.12 44.7508 74.1725 41.7013 74.1725 37.5805C74.1725 33.4059 75.12 30.3282 77.0159 28.3501C78.9113 26.3721 81.6439 25.3833 85.2158 25.3833H112.824V24.0121H114.602V16.0124H86.9932C79.6304 16.0124 73.8893 17.8396 69.7685 21.4927C69.0081 22.1669 68.3263 22.9075 67.7074 23.701H65.8357C63.1535 27.193 61.8101 31.8183 61.8101 37.5805C61.8101 44.1215 63.574 49.1929 67.0839 52.8092H113.649V49.6956Z" fill="#F0EFE8"/>
<path d="M174.717 29.339C174.717 27.3452 174.465 25.5741 173.975 24.0121H175.727C175.205 22.3882 174.418 20.9977 173.362 19.8442C171.274 17.565 167.73 16.424 162.731 16.424H124.656V23.7006H122.879V25.7949H157.822C161.119 25.7949 162.767 27.4713 162.767 30.8224V32.8004H131.12C126.669 32.8004 123.262 33.927 120.9 36.1793C118.537 38.4329 117.356 41.6188 117.356 45.7396C117.356 48.5269 117.891 50.8788 118.944 52.8089H174.717L174.717 29.339ZM162.767 49.2837H133.263C132.218 49.2837 131.409 48.9542 130.832 48.2944C130.255 47.635 129.967 46.7841 129.967 45.74C129.967 44.6969 130.255 43.8585 130.832 43.2261C131.409 42.595 132.219 42.2786 133.263 42.2786H162.767V49.2837Z" fill="#F0EFE8"/>
<path d="M234.714 52.8092V29.3394C234.714 27.3699 234.424 25.5969 233.856 24.0125H235.6C235.044 22.5017 234.231 21.1664 233.153 20.0098C230.928 17.6197 227.397 16.4244 222.563 16.4244H185.559V23.701H183.782V52.8088H195.732V25.7949H217.819C221.115 25.7949 222.764 27.443 222.764 30.7398V52.8088L234.714 52.8092Z" fill="#F0EFE8"/>
<path d="M321.66 46.9761H308.474V52.8093H321.66V46.9761Z" fill="#C8F53B"/>
<path d="M343.252 24.0121H345.03V16.4244H333.08V23.701H331.302V52.8092H343.252V24.0121Z" fill="#C8F53B"/>
<path d="M407.205 29.339C407.205 27.3452 406.952 25.5741 406.463 24.0121H408.215C407.693 22.3882 406.906 20.9977 405.85 19.8442C403.762 17.565 400.218 16.424 395.219 16.424H357.143V23.7006H355.366V25.7949H390.309C393.606 25.7949 395.254 27.4713 395.254 30.8224V32.8004H363.607C359.156 32.8004 355.75 33.927 353.387 36.1793C351.024 38.4329 349.844 41.6188 349.844 45.7396C349.844 48.5269 350.379 50.8788 351.432 52.8089H407.204V29.339H407.205ZM395.255 49.2837H365.751C364.707 49.2837 363.897 48.9542 363.319 48.2944C362.743 47.635 362.454 46.7841 362.454 45.74C362.454 44.6969 362.743 43.8585 363.319 43.2261C363.897 42.595 364.707 42.2786 365.751 42.2786H395.255V49.2837Z" fill="#C8F53B"/>
<rect x="262" y="76" width="146" height="39" fill="#C8F53B"/>
<path d="M388.65 97.7976C386.024 97.7976 383.976 97.1785 382.506 95.9402C381.05 94.6884 380.322 92.8378 380.322 90.3886C380.322 87.9529 381.05 86.116 382.506 84.8778C383.976 83.6259 386.024 83 388.65 83H391.303C393.943 83 395.991 83.6259 397.447 84.8778C398.903 86.116 399.631 87.9529 399.631 90.3886C399.631 92.8378 398.903 94.6884 397.447 95.9402C395.991 97.1785 393.943 97.7976 391.303 97.7976H388.65ZM383.649 90.3886C383.649 91.8718 384.01 93.0011 384.731 93.7767L392.732 85.7962C392.242 85.701 391.691 85.6534 391.079 85.6534H388.874C387.16 85.6534 385.86 86.0276 384.976 86.7759C384.091 87.5243 383.649 88.7285 383.649 90.3886ZM388.874 95.1442H391.079C392.793 95.1442 394.093 94.77 394.977 94.0217C395.861 93.2597 396.304 92.0486 396.304 90.3886C396.304 88.9054 395.936 87.7761 395.202 87.0005L387.18 95.0014C387.684 95.0966 388.248 95.1442 388.874 95.1442Z" fill="#0A0A08"/>
<path d="M355.069 109.028C350.692 109.028 347.279 107.996 344.83 105.932C342.403 103.846 341.19 100.761 341.19 96.6792C341.19 92.6198 342.403 89.5583 344.83 87.4945C347.279 85.4081 350.692 84.3649 355.069 84.3649H359.491C363.891 84.3649 367.304 85.4081 369.731 87.4945C372.157 89.5583 373.37 92.6198 373.37 96.6792C373.37 100.761 372.157 103.846 369.731 105.932C367.304 107.996 363.891 109.028 359.491 109.028H355.069ZM346.735 96.6792C346.735 99.1512 347.336 101.033 348.538 102.326L361.873 89.0253C361.056 88.8666 360.138 88.7872 359.117 88.7872H355.443C352.586 88.7872 350.42 89.4109 348.946 90.6582C347.472 91.9055 346.735 93.9125 346.735 96.6792ZM355.443 104.605H359.117C361.975 104.605 364.14 103.982 365.614 102.734C367.089 101.464 367.826 99.446 367.826 96.6792C367.826 94.2073 367.213 92.325 365.989 91.0323L352.62 104.367C353.459 104.526 354.4 104.605 355.443 104.605Z" fill="#0A0A08"/>
<path d="M315.461 108.892C311.923 108.892 309.179 107.826 307.229 105.694C305.278 103.539 304.303 100.535 304.303 96.6793C304.303 92.4838 305.517 89.4109 307.943 87.4605C310.392 85.5102 313.805 84.535 318.182 84.535H331.891V88.9573H318.557C316.085 88.9573 314.123 89.3769 312.672 90.2159C311.243 91.0324 310.358 92.4724 310.018 94.5362H325.904C328.422 94.5362 330.406 95.1712 331.857 96.4411C333.309 97.6884 334.034 99.4233 334.034 101.646C334.034 103.936 333.309 105.717 331.857 106.987C330.406 108.257 328.422 108.892 325.904 108.892H315.461ZM315.835 104.469H324.85C326.097 104.469 327.061 104.242 327.741 103.789C328.422 103.313 328.762 102.61 328.762 101.68C328.762 100.773 328.422 100.092 327.741 99.6388C327.061 99.1852 326.097 98.9584 324.85 98.9584H310.018C310.54 102.632 312.479 104.469 315.835 104.469Z" fill="#0A0A08"/>
<path d="M270 108.857V104.435H288.71C289.571 104.435 290.218 104.197 290.649 103.721C291.079 103.222 291.295 102.542 291.295 101.68C291.295 100.795 291.079 100.104 290.649 99.6047C290.218 99.1058 289.571 98.8564 288.71 98.8564H273.198V94.4681H288.676C290.422 94.4681 291.295 93.5496 291.295 91.7127C291.295 89.8984 290.422 88.9913 288.676 88.9913H270V84.569H289.696C292.055 84.569 293.88 85.1587 295.173 86.3379C296.488 87.4945 297.146 89.116 297.146 91.2024C297.146 92.3363 296.93 93.4136 296.5 94.4341C296.069 95.4319 295.354 96.169 294.356 96.6452C295.354 97.1441 296.069 97.8812 296.5 98.8564C296.93 99.8089 297.146 100.863 297.146 102.02C297.146 104.084 296.488 105.739 295.173 106.987C293.88 108.234 292.055 108.857 289.696 108.857H270Z" fill="#0A0A08"/>
<path d="M239 107L249 96.5L239 86V107Z" fill="#8FAD1F"/>
</svg>
