<svg width="186" height="89" viewBox="0 0 186 89" fill="none" xmlns="http://www.w3.org/2000/svg">
<path d="M70.7308 11.6047C71.5769 10.6744 72 9.47287 72 8C72 6.52713 71.5769 5.32558 70.7308 4.39535C69.8462 3.46511 68.7692 3 67.5 3C66.1923 3 65.1154 3.46511 64.2692 4.39535C63.4231 5.32558 63 6.52713 63 8C63 9.47287 63.4231 10.6744 64.2692 11.6047C65.1154 12.5349 66.1923 13 67.5 13C68.7692 13 69.8462 12.5349 70.7308 11.6047Z" fill="#21FF95"/>
<path d="M52.4531 69.5509C53.7092 69.4914 54.858 68.941 55.8995 67.8995C56.941 66.858 57.4914 65.7092 57.5509 64.4531C57.5831 63.1698 57.1505 62.0795 56.253 61.182C55.3284 60.2573 54.238 59.8247 52.9819 59.8841C51.7258 59.9436 50.577 60.4941 49.5355 61.5355C48.4941 62.577 47.9436 63.7258 47.8841 64.9819C47.8247 66.238 48.2573 67.3284 49.182 68.2531C50.0795 69.1505 51.1698 69.5831 52.4531 69.5509Z" fill="#1CBFFF"/>
<path d="M73.9873 61.9668C76.5506 61.9668 78.6481 62.6081 80.2793 63.8906C81.9102 65.1403 82.8587 66.9818 83.125 69.415H79.6299C79.4967 68.0668 78.9303 66.9982 77.9316 66.209C76.933 65.4198 75.5853 65.0245 73.8877 65.0244C72.2232 65.0244 70.9408 65.37 70.042 66.0605C69.1766 66.7182 68.7442 67.6226 68.7441 68.7734C68.7442 69.4968 68.9773 70.1223 69.4434 70.6484C69.9094 71.1744 70.5917 71.6348 71.4902 72.0293C72.4223 72.391 73.5542 72.7037 74.8857 72.9668C76.4837 73.2628 77.9487 73.6571 79.2803 74.1504C80.6451 74.6108 81.7439 75.3339 82.5762 76.3203C83.4417 77.274 83.874 78.6393 83.874 80.415C83.9073 81.8948 83.541 83.2104 82.7754 84.3613C82.0098 85.512 80.9282 86.4166 79.5303 87.0742C78.1321 87.699 76.4835 88.0117 74.5859 88.0117C72.5887 88.0117 70.8242 87.6821 69.293 87.0244C67.7951 86.3667 66.5795 85.4295 65.6475 84.2129C64.7488 82.9634 64.1997 81.4832 64 79.7734H67.5957C67.7954 80.727 68.1783 81.5985 68.7441 82.3877C69.3433 83.1768 70.1421 83.8183 71.1406 84.3115C72.1393 84.7719 73.3216 85.002 74.6865 85.002C75.9514 85.0019 76.9833 84.8216 77.7822 84.46C78.6144 84.0654 79.2304 83.5554 79.6299 82.9307C80.0626 82.273 80.2793 81.5489 80.2793 80.7598C80.2792 79.6749 80.013 78.836 79.4805 78.2441C78.9812 77.6194 78.2484 77.1592 77.2832 76.8633C76.3178 76.5673 75.152 76.2875 73.7871 76.0244C72.6555 75.8271 71.5738 75.5641 70.542 75.2354C69.51 74.9065 68.5774 74.4793 67.7451 73.9531C66.9462 73.427 66.3137 72.7687 65.8477 71.9795C65.3818 71.1575 65.1485 70.2041 65.1484 69.1191C65.1484 67.7051 65.4982 66.4712 66.1973 65.4189C66.9296 64.3339 67.9615 63.4952 69.293 62.9033C70.6246 62.2785 72.1896 61.9668 73.9873 61.9668Z" fill="#EAEAEA"/>
<path d="M105.036 77.248C105.036 79.8691 105.593 81.8189 106.706 83.0967C107.851 84.3744 109.425 85.0136 111.429 85.0137C112.86 85.0137 114.132 84.6693 115.245 83.9814C116.39 83.2935 117.281 82.2777 117.917 80.9346C118.585 79.5585 118.919 77.8867 118.919 75.9209V62.6523H122.259V87.4219H119.205L119.015 82.998C118.251 84.6034 117.138 85.8488 115.675 86.7334C114.244 87.5852 112.637 88.0117 110.856 88.0117C109.044 88.0117 107.437 87.6514 106.038 86.9307C104.671 86.1771 103.605 85.0461 102.842 83.5391C102.079 81.9992 101.696 80.0333 101.696 77.6416V62.6523H105.036V77.248Z" fill="#EAEAEA"/>
<path fill-rule="evenodd" clip-rule="evenodd" d="M150.359 87.416H147.201L146.905 82.9004C146.379 83.7603 145.688 84.5871 144.833 85.3809C144.011 86.1747 142.99 86.8202 141.773 87.3164C140.589 87.7795 139.207 88.0117 137.628 88.0117C135.226 88.0117 133.121 87.4489 131.312 86.3242C129.535 85.1663 128.153 83.5943 127.166 81.6094C126.179 79.6245 125.686 77.3746 125.686 74.8604C125.686 72.3462 126.179 70.113 127.166 68.1611C128.153 66.1762 129.551 64.6209 131.36 63.4961C133.17 62.3713 135.275 61.8096 137.677 61.8096C139.782 61.8096 141.625 62.272 143.204 63.1982C144.816 64.0915 146.05 65.3655 146.905 67.0195V51.6855H150.359V87.416ZM137.924 64.8359C136.213 64.8359 134.7 65.2501 133.384 66.0771C132.068 66.9042 131.031 68.0788 130.274 69.6006C129.551 71.0892 129.189 72.8592 129.189 74.9102C129.189 76.9612 129.568 78.7478 130.324 80.2695C131.081 81.7582 132.118 82.9161 133.434 83.7432C134.749 84.5702 136.246 84.9844 137.924 84.9844C139.667 84.9844 141.181 84.5702 142.464 83.7432C143.78 82.9161 144.8 81.7414 145.523 80.2197C146.28 78.698 146.658 76.928 146.658 74.9102C146.658 72.8922 146.28 71.1223 145.523 69.6006C144.8 68.0788 143.78 66.9042 142.464 66.0771C141.181 65.2501 139.667 64.8359 137.924 64.8359Z" fill="#EAEAEA"/>
<path fill-rule="evenodd" clip-rule="evenodd" d="M174.006 61.9668C176.346 61.9668 178.411 62.5096 180.198 63.5947C181.986 64.647 183.399 66.1431 184.439 68.083C185.48 70.0232 186 72.3416 186 75.0381C186 77.6359 185.463 79.9215 184.391 81.8945C183.351 83.8346 181.921 85.3475 180.101 86.4326C178.313 87.4849 176.248 88.0117 173.908 88.0117C171.665 88.0117 169.634 87.4849 167.813 86.4326C166.026 85.3474 164.611 83.8347 163.571 81.8945C162.531 79.9215 162.012 77.6358 162.012 75.0381C162.012 72.3417 162.531 70.0232 163.571 68.083C164.644 66.1428 166.091 64.647 167.911 63.5947C169.731 62.5095 171.763 61.9668 174.006 61.9668ZM174.006 64.9756C172.543 64.9756 171.162 65.354 169.861 66.1104C168.561 66.8666 167.505 67.9843 166.692 69.4639C165.912 70.9108 165.521 72.7531 165.521 74.9893C165.522 77.1923 165.912 79.0499 166.692 80.5625C167.472 82.0422 168.496 83.1607 169.764 83.917C171.064 84.6733 172.462 85.0518 173.957 85.0518C175.485 85.0517 176.883 84.6733 178.15 83.917C179.45 83.1607 180.49 82.0421 181.271 80.5625C182.083 79.05 182.489 77.1922 182.489 74.9893C182.489 72.7532 182.099 70.8948 181.319 69.415C180.539 67.9354 179.499 66.8338 178.199 66.1104C176.932 65.354 175.533 64.9756 174.006 64.9756Z" fill="#EAEAEA"/>
<path d="M91.9375 62.3438H99.6406V65.2744H91.9375V80.124C91.9375 81.7794 92.2769 82.906 92.957 83.502C93.6372 84.0648 94.8448 84.3457 96.5791 84.3457H99.2324V87.3262H95.4062C93.9438 87.3262 92.6852 87.1111 91.6309 86.6807C90.5766 86.2172 89.7608 85.4716 89.1826 84.4453C88.6385 83.3858 88.3662 81.945 88.3662 80.124V65.2744H83.877V62.2939H88.3662L88.876 56.4834H91.9375V62.3438Z" fill="#EAEAEA"/>
<path d="M158.584 87.3262H154.472V62.6523H158.584V87.3262Z" fill="#EAEAEA"/>
<path d="M155.924 53.4844C157.266 54.1271 158.811 54.5649 160.56 54.7988C160.852 55.2955 161 55.8621 161 56.5C161 57.4871 160.628 58.3247 159.884 59.0127C159.14 59.6708 158.178 60 157 60C155.822 60 154.86 59.6708 154.116 59.0127C153.372 58.3247 153 57.4871 153 56.5C153 55.483 153.372 54.6454 154.116 53.9873C154.503 53.6456 154.948 53.3928 155.451 53.2285C155.606 53.3154 155.763 53.4015 155.924 53.4844Z" fill="#9A17FF"/>
<path d="M30.8984 25.7744H20.748V41.9463C20.7481 45.008 20.8746 45.0078 21.3535 45.7324C21.6274 46.1465 22.5191 46.5126 23.2822 46.5127H30.8213V55.7207H27L26.9932 55.7109C24.4104 55.6477 18.3612 55.2135 16.4082 54.4053C14.3418 53.5283 12.7391 52.0831 11.6025 50.0713C10.4663 48.0595 9.89845 45.325 9.89844 41.8691V35.6182C14.1119 33.6786 14.1123 29.9931 14.1123 26.875V16.7207H30.8984V25.7744Z" fill="#EAEAEA"/>
<path d="M58.8984 27.1865H55.2715C53.7286 27.1866 52.2884 27.3622 50.9512 27.7148C49.6652 28.0675 48.533 28.647 47.5557 29.4531C46.6298 30.2089 45.9099 31.2676 45.3955 32.6279C44.9326 33.9379 44.7012 35.6008 44.7012 37.6162V55H33.8984V16.9072H43.4668L44.4697 23.9365C45.4471 22.2738 46.6297 20.862 48.0186 19.7031C49.4074 18.5443 51.0281 17.6374 52.8799 16.9824C54.7317 16.3274 56.738 16 58.8984 16V27.1865Z" fill="#EAEAEA"/>
<path d="M127.934 15C132.879 15 137.034 16.3132 140.398 18.9395C143.814 21.5152 145.981 25.0758 146.898 29.6211H135.504C135.096 27.9041 134.178 26.566 132.751 25.6064C131.375 24.5965 129.718 24.0909 127.781 24.0908C126.048 24.0908 124.493 24.5452 123.116 25.4541C121.791 26.3127 120.745 27.5509 119.98 29.167C119.216 30.783 118.834 32.7276 118.834 35C118.834 36.717 119.038 38.2576 119.445 39.6211C119.904 40.9341 120.517 42.0707 121.281 43.0303C122.097 43.9897 123.065 44.7225 124.187 45.2275C125.308 45.7326 126.507 45.9844 127.781 45.9844C129.107 45.9843 130.279 45.7829 131.299 45.3789C132.318 44.9244 133.21 44.2923 133.975 43.4844C134.739 42.6259 135.249 41.6156 135.504 40.4541H146.898C145.981 44.8984 143.814 48.4343 140.398 51.0605C136.983 53.6868 132.802 55 127.857 55C123.983 55 120.542 54.1409 117.534 52.4238C116.593 51.8868 115.714 51.2885 114.898 50.6279V54H104.206V33.0635C104.206 30.1413 103.565 27.8988 102.283 26.3369C101.052 24.7247 99.078 23.919 96.3604 23.9189C94.7193 23.9189 93.2318 24.3218 91.8984 25.1279C90.5652 25.8837 89.5134 26.992 88.7441 28.4531C88.0262 29.8639 87.668 31.6032 87.668 33.6689V54H76.8984V15.9072H86.3604L87.1289 22.1045C88.3084 19.9883 89.9752 18.2749 92.1289 16.9648C94.334 15.6548 96.9758 15 100.053 15C103.232 15.0001 105.924 15.6807 108.129 17.041C110.006 18.1562 111.491 19.7106 112.588 21.7021C113.981 20.0889 115.63 18.7384 117.534 17.6514C120.542 15.8839 124.008 15 127.934 15Z" fill="#EAEAEA"/>
<path fill-rule="evenodd" clip-rule="evenodd" d="M168.351 15C171.915 15 175.003 15.6063 177.614 16.8184C180.275 18.0305 182.308 19.7733 183.714 22.0459C185.17 24.3185 185.898 27.1211 185.898 30.4541V54.0908H177.012L175.807 48.333C175.305 49.3429 174.652 50.2526 173.849 51.0605C173.096 51.8686 172.216 52.5756 171.212 53.1816C170.208 53.7371 169.078 54.1667 167.823 54.4697C166.618 54.8233 165.262 55 163.756 55C162.624 55 161.559 54.9325 160.56 54.7988C160.386 54.5037 160.161 54.2326 159.884 53.9873C159.14 53.3292 158.178 53 157 53C156.434 53 155.917 53.0764 155.451 53.2285C153.63 52.2036 152.255 50.9012 151.329 49.3184C150.375 47.5507 149.898 45.6055 149.898 43.4844C149.899 41.2119 150.476 39.1913 151.631 37.4238C152.786 35.6565 154.568 34.2678 156.978 33.2578C159.388 32.2477 162.401 31.7422 166.016 31.7422H175.354C175.354 29.9242 175.104 28.434 174.602 27.2725C174.15 26.0605 173.396 25.1519 172.342 24.5459C171.338 23.9399 169.982 23.6368 168.275 23.6367C166.418 23.6367 164.836 24.0406 163.53 24.8486C162.275 25.6566 161.497 26.8685 161.195 28.4844H150.953C151.254 25.7574 152.158 23.409 153.664 21.4395C155.17 19.4193 157.179 17.8533 159.689 16.7422C162.25 15.5807 165.137 15 168.351 15ZM167.296 38.1064C165.84 38.1064 164.635 38.3079 163.681 38.7119C162.777 39.0654 162.099 39.5959 161.647 40.3027C161.196 40.9593 160.97 41.7177 160.97 42.5762C160.97 43.4849 161.196 44.2675 161.647 44.9238C162.099 45.5803 162.727 46.0603 163.53 46.3633C164.333 46.6663 165.262 46.8183 166.316 46.8184C167.572 46.8184 168.702 46.6159 169.706 46.2119C170.71 45.7574 171.564 45.1263 172.267 44.3184C172.969 43.5103 173.547 42.6009 173.999 41.5908C174.451 40.5303 174.752 39.3936 174.902 38.1816V38.1064H167.296Z" fill="#EAEAEA"/>
<path d="M72.8984 54.5H62.8984V16.5H72.8984V54.5Z" fill="#EAEAEA"/>
<path d="M10.9883 25.7207C10.9883 32.0566 11.7913 34.4965 0 34.7207V29.5781C1.22093 29.5781 3.66303 29.5777 3.66309 25.7207H0V16.7207H10.9883V25.7207Z" fill="#EAEAEA"/>
</svg>
